<svg xmlns="http://www.w3.org/2000/svg" width="512" height="512" viewBox="0 0 512 512" role="img" aria-label="HotHotHot icon">
  <defs>
    <linearGradient id="bg" x1="0" y1="0" x2="1" y2="1">
      <stop offset="0%" stop-color="#ff8a50"/>
      <stop offset="100%" stop-color="#ff5722"/>
    </linearGradient>
  </defs>
  <rect width="512" height="512" rx="96" fill="url(#bg)"/>
  <path d="M171 332c0-42 34-76 76-76h18c-13-16-21-35-21-56 0-50 40-90 90-90v52c-21 0-38 17-38 38 0 16 10 30 24 35 36 15 61 50 61 91 0 55-45 100-100 100h-34c-42 0-76-34-76-76 0-26 13-48 32-62-20 11-34 32-34 58z" fill="#fff"/>
  <circle cx="158" cy="398" r="22" fill="#fff" opacity="0.92"/>
</svg>
